<svg width="35" height="35" viewBox="0 0 40 40" fill="none" xmlns="http://www.w3.org/2000/svg">
<path d="M16.25 6.06061H23.75C23.75 5.09618 23.3549 4.17126 22.6517 3.48931C21.9484 2.80736 20.9946 2.42424 20 2.42424C19.0054 2.42424 18.0516 2.80736 17.3483 3.48931C16.6451 4.17126 16.25 5.09618 16.25 6.06061ZM13.75 6.06061C13.75 4.45323 14.4085 2.91169 15.5806 1.77511C16.7527 0.638526 18.3424 0 20 0C21.6576 0 23.2473 0.638526 24.4194 1.77511C25.5915 2.91169 26.25 4.45323 26.25 6.06061H38.75C39.0815 6.06061 39.3995 6.18831 39.6339 6.41563C39.8683 6.64295 40 6.95125 40 7.27273C40 7.5942 39.8683 7.90251 39.6339 8.12983C39.3995 8.35714 39.0815 8.48485 38.75 8.48485H36.115L33.13 33.5612C32.919 35.3338 32.0433 36.9693 30.6697 38.1565C29.296 39.3438 27.5201 39.9999 25.68 40H14.32C12.4799 39.9999 10.704 39.3438 9.33034 38.1565C7.95665 36.9693 7.081 35.3338 6.87 33.5612L3.885 8.48485H1.25C0.918479 8.48485 0.600537 8.35714 0.366117 8.12983C0.131696 7.90251 0 7.5942 0 7.27273C0 6.95125 0.131696 6.64295 0.366117 6.41563C0.600537 6.18831 0.918479 6.06061 1.25 6.06061H13.75ZM17.5 15.7576C17.5 15.4361 17.3683 15.1278 17.1339 14.9005C16.8995 14.6732 16.5815 14.5455 16.25 14.5455C15.9185 14.5455 15.6005 14.6732 15.3661 14.9005C15.1317 15.1278 15 15.4361 15 15.7576V30.303C15 30.6245 15.1317 30.9328 15.3661 31.1601C15.6005 31.3874 15.9185 31.5152 16.25 31.5152C16.5815 31.5152 16.8995 31.3874 17.1339 31.1601C17.3683 30.9328 17.5 30.6245 17.5 30.303V15.7576ZM23.75 14.5455C23.4185 14.5455 23.1005 14.6732 22.8661 14.9005C22.6317 15.1278 22.5 15.4361 22.5 15.7576V30.303C22.5 30.6245 22.6317 30.9328 22.8661 31.1601C23.1005 31.3874 23.4185 31.5152 23.75 31.5152C24.0815 31.5152 24.3995 31.3874 24.6339 31.1601C24.8683 30.9328 25 30.6245 25 30.303V15.7576C25 15.4361 24.8683 15.1278 24.6339 14.9005C24.3995 14.6732 24.0815 14.5455 23.75 14.5455Z" fill="#E32020"/>
</svg>
