<svg width="30" height="30" viewBox="0 0 30 20" fill="none" xmlns="http://www.w3.org/2000/svg">
<path d="M0 9.18919C0 9.18919 5.71091 2.7027 15 2.7027C16.2914 2.7027 17.5077 2.83351 18.6518 3.05081L10.0364 9.88108C9.71475 9.3247 9.54736 8.72012 9.54545 8.10811C9.54545 7.09513 10.0023 6.17622 10.7386 5.43892C7.47682 6.31676 4.99227 8.0173 3.57409 9.18919C4.78219 10.1884 6.14804 11.0598 7.63773 11.7816L5.65636 13.3524C2.04136 11.4919 0 9.18919 0 9.18919ZM30 9.18919C30 9.18919 24.2891 15.6757 15 15.6757C13.71 15.6757 12.4964 15.5416 11.3509 15.3265L5.45455 20L3.40909 18.3784L26.5909 0L28.6364 1.62162L24.345 5.02378C27.9559 6.88541 30 9.18919 30 9.18919ZM26.4341 9.19567C25.2239 8.19366 23.8547 7.32042 22.3609 6.59784L20.4545 8.10811C20.4545 9.25499 19.8799 10.3549 18.8569 11.1659C17.834 11.9768 16.4466 12.4324 15 12.4324L13.7086 13.4562C14.1314 13.4897 14.5595 13.5135 15 13.5135C20.4245 13.5135 24.4677 10.8346 26.4341 9.19567Z" fill="black"/>
</svg>
