<svg width="30" height="20" viewBox="0 0 30 20" fill="none" xmlns="http://www.w3.org/2000/svg">
<path d="M15 0C5.71091 0 0 10 0 10C0 10 5.71091 20 15 20C24.2891 20 30 10 30 10C30 10 24.2891 0 15 0ZM15 16.6667C9.62318 16.6667 5.55545 12.5267 3.57409 10C4.99227 8.19167 7.47682 5.57167 10.7386 4.21833C9.9705 5.38485 9.54974 6.83595 9.54545 8.33333C9.54545 10.1014 10.1201 11.7971 11.1431 13.0474C12.166 14.2976 13.5534 15 15 15C16.4466 15 17.834 14.2976 18.8569 13.0474C19.8799 11.7971 20.4545 10.1014 20.4545 8.33333C20.4503 6.83595 20.0295 5.38485 19.2614 4.21833C22.5245 5.57167 25.0105 8.19333 26.4259 10C24.4418 12.53 20.3755 16.6667 15 16.6667Z" fill="black"/>
</svg>
